<svg width="20" height="20" viewBox="0 0 20 20" fill="none" xmlns="http://www.w3.org/2000/svg">
<path d="M14.5834 10.0001C14.5834 12.5314 12.5314 14.5834 10.0001 14.5834C7.46878 14.5834 5.41675 12.5314 5.41675 10.0001C5.41675 7.46878 7.46878 5.41675 10.0001 5.41675C12.5314 5.41675 14.5834 7.46878 14.5834 10.0001Z" fill="#FFE870"/>
<path d="M9.375 1.17463C9.375 0.732938 9.65482 0.374878 10 0.374878C10.3452 0.374878 10.625 0.732938 10.625 1.17463V3.57388C10.625 4.01557 10.3452 4.37363 10 4.37363C9.65482 4.37363 9.375 4.01557 9.375 3.57388V1.17463Z" fill="#FFE870"/>
<path d="M9.375 16.4245C9.375 15.9828 9.65482 15.6248 10 15.6248C10.3452 15.6248 10.625 15.9828 10.625 16.4245V18.8238C10.625 19.2654 10.3452 19.6235 10 19.6235C9.65482 19.6235 9.375 19.2654 9.375 18.8238V16.4245Z" fill="#FFE870"/>
<path d="M1.17475 9.375C0.73306 9.375 0.375 9.65482 0.375 10C0.375 10.3452 0.73306 10.625 1.17475 10.625H3.574C4.01569 10.625 4.37375 10.3452 4.37375 10C4.37375 9.65482 4.01569 9.375 3.574 9.375H1.17475Z" fill="#FFE870"/>
<path d="M16.4245 9.375C15.9828 9.375 15.6248 9.65482 15.6248 10C15.6248 10.3452 15.9828 10.625 16.4245 10.625H18.8238C19.2654 10.625 19.6235 10.3452 19.6235 10C19.6235 9.65482 19.2654 9.375 18.8238 9.375H16.4245Z" fill="#FFE870"/>
<path d="M15.5178 16.4017C15.7619 16.6458 16.1576 16.6458 16.4017 16.4017C16.6457 16.1576 16.6457 15.7619 16.4017 15.5178L15.0758 14.192C14.8318 13.9479 14.436 13.9479 14.1919 14.192C13.9479 14.4361 13.9479 14.8318 14.1919 15.0759L15.5178 16.4017Z" fill="#FFE870"/>
<path d="M3.56694 15.5178C3.32286 15.7619 3.32286 16.1576 3.56694 16.4017C3.81102 16.6457 4.20675 16.6457 4.45083 16.4017L5.77665 15.0758C6.02073 14.8318 6.02073 14.436 5.77665 14.1919C5.53257 13.9479 5.13684 13.9479 4.89277 14.1919L3.56694 15.5178Z" fill="#FFE870"/>
<path d="M14.1917 4.89278C13.9476 5.13685 13.9476 5.53258 14.1917 5.77666C14.4358 6.02074 14.8315 6.02074 15.0756 5.77666L16.4014 4.45083C16.6455 4.20676 16.6455 3.81103 16.4014 3.56695C16.1573 3.32287 15.7616 3.32287 15.5175 3.56695L14.1917 4.89278Z" fill="#FFE870"/>
<path d="M4.89302 5.77656C5.1371 6.02064 5.53282 6.02064 5.7769 5.77656C6.02098 5.53249 6.02098 5.13676 5.7769 4.89268L4.45108 3.56686C4.207 3.32278 3.81127 3.32278 3.56719 3.56686C3.32312 3.81093 3.32312 4.20666 3.56719 4.45074L4.89302 5.77656Z" fill="#FFE870"/>
</svg>
